<?xml version="1.0" encoding="UTF-8" standalone="no"?>
<svg
   xmlns:dc="http://purl.org/dc/elements/1.1/"
   xmlns:cc="http://creativecommons.org/ns#"
   xmlns:rdf="http://www.w3.org/1999/02/22-rdf-syntax-ns#"
   xmlns:svg="http://www.w3.org/2000/svg"
   xmlns="http://www.w3.org/2000/svg"
   xmlns:sodipodi="http://sodipodi.sourceforge.net/DTD/sodipodi-0.dtd"
   xmlns:inkscape="http://www.inkscape.org/namespaces/inkscape"
   viewBox="0 0 448 512"
   version="1.1"
   id="svg4"
   sodipodi:docname="phone.svg"
   width="448"
   height="512"
   inkscape:version="0.92.3 (2405546, 2018-03-11)">
  <metadata
     id="metadata10">
    <rdf:RDF>
      <cc:Work
         rdf:about="">
        <dc:format>image/svg+xml</dc:format>
        <dc:type
           rdf:resource="http://purl.org/dc/dcmitype/StillImage" />
        <dc:title></dc:title>
      </cc:Work>
    </rdf:RDF>
  </metadata>
  <defs
     id="defs8" />
  <sodipodi:namedview
     pagecolor="#ffffff"
     bordercolor="#666666"
     borderopacity="1"
     objecttolerance="10"
     gridtolerance="10"
     guidetolerance="10"
     inkscape:pageopacity="0"
     inkscape:pageshadow="2"
     inkscape:window-width="1280"
     inkscape:window-height="657"
     id="namedview6"
     showgrid="false"
     inkscape:zoom="0.4609375"
     inkscape:cx="-503.32204"
     inkscape:cy="256"
     inkscape:window-x="-8"
     inkscape:window-y="-8"
     inkscape:window-maximized="1"
     inkscape:current-layer="svg4" />
  <path
     d="M 428.49571,94.247623 338.59742,77.978477 c -9.7799,-1.770169 -19.77676,2.204745 -23.73315,9.444742 l -41.49152,75.930141 a 20.74576,16.271179 0 0 0 5.93156,19.00269 l 52.39774,33.6244 c -31.0953,51.98303 -85.52267,95.25962 -153.21522,120.16808 l -42.87112,-41.09557 a 20.74576,16.271179 0 0 0 -24.22845,-4.6522 L 14.576306,322.94311 C 5.3478999,326.04481 0.2764259,333.8848 2.5342562,341.55734 l 20.7431668,70.50844 c 2.15583,7.32679 10.487846,12.6122 20.21415,12.6122 221.363317,0 401.084697,-140.6996 401.084697,-314.57613 0,-7.57694 -6.66803,-14.151178 -16.08056,-15.854227 z"
     id="path2"
     inkscape:connector-curvature="0"
     style="stroke-width:0.7655313;fill:#ffffff;fill-opacity:1" />
</svg>
