<?xml version="1.0" encoding="UTF-8" standalone="no"?>
<svg
   xmlns:dc="http://purl.org/dc/elements/1.1/"
   xmlns:cc="http://creativecommons.org/ns#"
   xmlns:rdf="http://www.w3.org/1999/02/22-rdf-syntax-ns#"
   xmlns:svg="http://www.w3.org/2000/svg"
   xmlns="http://www.w3.org/2000/svg"
   xmlns:sodipodi="http://sodipodi.sourceforge.net/DTD/sodipodi-0.dtd"
   xmlns:inkscape="http://www.inkscape.org/namespaces/inkscape"
   version="1.0"
   width="300.000000pt"
   height="300.000000pt"
   viewBox="0 0 300.000000 300.000000"
   preserveAspectRatio="xMidYMid meet"
   id="svg22"
   sodipodi:docname="campany.svg"
   inkscape:version="0.92.3 (2405546, 2018-03-11)">
  <metadata
     id="metadata28">
    <rdf:RDF>
      <cc:Work
         rdf:about="">
        <dc:format>image/svg+xml</dc:format>
        <dc:type
           rdf:resource="http://purl.org/dc/dcmitype/StillImage" />
        <dc:title></dc:title>
      </cc:Work>
    </rdf:RDF>
  </metadata>
  <defs
     id="defs26" />
  <sodipodi:namedview
     pagecolor="#ffffff"
     bordercolor="#666666"
     borderopacity="1"
     objecttolerance="10"
     gridtolerance="10"
     guidetolerance="10"
     inkscape:pageopacity="0"
     inkscape:pageshadow="2"
     inkscape:window-width="1280"
     inkscape:window-height="657"
     id="namedview24"
     showgrid="false"
     inkscape:zoom="0.59"
     inkscape:cx="-196.80294"
     inkscape:cy="275.79312"
     inkscape:window-x="-8"
     inkscape:window-y="-8"
     inkscape:window-maximized="1"
     inkscape:current-layer="g20" />
  <g
     transform="translate(0.000000,300.000000) scale(0.100000,-0.100000)"
     fill="#000000"
     stroke="none"
     id="g20">
    <path
       d="m 1118.644,1941.6101 v -425.8474 h 176.017 176.0169 v 70.9746 70.9745 h -105.0423 -105.0424 v 283.8983 283.8983 h 283.8983 283.8983 V 1941.6101 1657.7118 H 1726.1864 1623.983 v -70.9745 -70.9746 h 173.1779 173.178 v 425.8474 425.8475 H 1544.4915 1118.644 Z"
       id="path2"
       inkscape:connector-curvature="0"
       style="fill:#fe9a48;fill-opacity:1;stroke-width:0.56779659" />
    <path
       d="m 1334.4068,1938.7712 v -212.9238 h 212.9236 212.9238 v 212.9238 212.9237 h -212.9238 -212.9236 z m 340.6779,0 v -127.7543 h -127.7543 -127.7542 v 127.7543 127.7542 h 127.7542 127.7543 z"
       id="path4"
       inkscape:connector-curvature="0"
       style="fill:#ffffff;fill-opacity:1;stroke-width:0.56779659" />
    <path
       d="m 422,1203 c -17,-17 -17,-479 0,-496 16,-16 220,-16 236,0 7,7 12,42 12,85 v 73 h -40 -40 v -50 -50 h -50 -50 v 190 190 h 50 50 v -50 -50 h 40 40 v 73 c 0,43 -5,78 -12,85 -16,16 -220,16 -236,0 z"
       id="path6"
       inkscape:connector-curvature="0"
       style="fill:#ffffff;fill-opacity:1" />
    <path
       d="m 810,1211 c 0,-5 -88,-461 -95,-494 -5,-20 -2,-22 34,-22 39,0 40,2 46,38 11,61 12,62 59,62 47,0 56,-11 56,-72 0,-26 3,-28 40,-28 30,0 40,4 40,16 0,8 -20,122 -45,252 -25,130 -45,240 -45,244 0,4 -20,8 -45,8 -25,0 -45,-2 -45,-4 z m 75,-313 c 6,-32 5,-33 -31,-33 h -37 l 7,43 c 4,23 12,71 18,107 l 12,65 12,-75 c 7,-41 16,-90 19,-107 z"
       id="path8"
       inkscape:connector-curvature="0"
       style="fill:#ffffff;fill-opacity:1" />
    <path
       d="M 1040,956 V 695 h 40 40 l 1,133 1,132 27,-105 c 23,-89 30,-105 48,-108 18,-3 24,4 32,35 5,21 19,72 30,113 l 19,75 1,-137 1,-138 h 40 40 v 260 260 h -39 -38 l -37,-127 c -20,-71 -40,-135 -43,-143 -3,-8 -24,48 -47,125 l -41,140 -38,3 -37,3 z"
       id="path10"
       inkscape:connector-curvature="0"
       style="fill:#fe9a48;fill-opacity:1" />
    <path
       d="M 1410,955 V 695 h 40 40 v 95 95 h 73 c 43,0 78,5 85,12 17,17 17,289 0,306 -8,8 -50,12 -125,12 h -113 z m 170,95 v -95 h -45 -45 v 95 95 h 45 45 z"
       id="path12"
       inkscape:connector-curvature="0"
       style="fill:#fe9a48;fill-opacity:1" />
    <path
       d="m 1800,1211 c 0,-5 -88,-461 -95,-494 -5,-20 -2,-22 34,-22 39,0 40,2 46,38 11,61 12,62 59,62 47,0 56,-11 56,-72 0,-26 3,-28 40,-28 30,0 40,4 40,16 0,8 -20,122 -45,252 -25,130 -45,240 -45,244 0,4 -20,8 -45,8 -25,0 -45,-2 -45,-4 z m 75,-313 c 6,-32 5,-33 -31,-33 h -37 l 7,43 c 4,23 12,71 18,107 l 12,65 12,-75 c 7,-41 16,-90 19,-107 z"
       id="path14"
       inkscape:connector-curvature="0"
       style="fill:#fe9a48;fill-opacity:1" />
    <path
       d="M 2030,956 V 695 h 40 39 l 3,145 3,145 55,-145 54,-145 h 38 38 v 260 260 h -40 -39 l -3,-147 -3,-148 -56,145 -56,145 -37,3 -36,3 z"
       id="path16"
       inkscape:connector-curvature="0"
       style="fill:#ffffff;fill-opacity:1" />
    <path
       d="m 2340,1208 c 0,-5 23,-77 50,-162 46,-143 50,-163 50,-253 v -98 h 40 40 v 96 c 0,88 4,109 50,252 28,86 50,159 50,164 0,4 -18,8 -40,8 -38,0 -40,-2 -51,-42 -35,-134 -47,-171 -52,-158 -6,16 -16,52 -42,143 l -16,57 h -39 c -22,0 -40,-3 -40,-7 z"
       id="path18"
       inkscape:connector-curvature="0"
       style="fill:#ffffff;fill-opacity:1" />
  </g>
</svg>
