<?xml version="1.0" encoding="UTF-8" standalone="no"?>
<svg
   xmlns:dc="http://purl.org/dc/elements/1.1/"
   xmlns:cc="http://creativecommons.org/ns#"
   xmlns:rdf="http://www.w3.org/1999/02/22-rdf-syntax-ns#"
   xmlns:svg="http://www.w3.org/2000/svg"
   xmlns="http://www.w3.org/2000/svg"
   xmlns:sodipodi="http://sodipodi.sourceforge.net/DTD/sodipodi-0.dtd"
   xmlns:inkscape="http://www.inkscape.org/namespaces/inkscape"
   viewBox="0 0 448 512"
   version="1.1"
   id="svg4"
   sodipodi:docname="home.svg"
   width="448"
   height="512"
   inkscape:version="0.92.3 (2405546, 2018-03-11)">
  <metadata
     id="metadata10">
    <rdf:RDF>
      <cc:Work
         rdf:about="">
        <dc:format>image/svg+xml</dc:format>
        <dc:type
           rdf:resource="http://purl.org/dc/dcmitype/StillImage" />
        <dc:title></dc:title>
      </cc:Work>
    </rdf:RDF>
  </metadata>
  <defs
     id="defs8" />
  <sodipodi:namedview
     pagecolor="#ffffff"
     bordercolor="#666666"
     borderopacity="1"
     objecttolerance="10"
     gridtolerance="10"
     guidetolerance="10"
     inkscape:pageopacity="0"
     inkscape:pageshadow="2"
     inkscape:window-width="1280"
     inkscape:window-height="657"
     id="namedview6"
     showgrid="false"
     inkscape:zoom="0.4609375"
     inkscape:cx="-586.84746"
     inkscape:cy="256"
     inkscape:window-x="-8"
     inkscape:window-y="-8"
     inkscape:window-maximized="1"
     inkscape:current-layer="svg4" />
  <path
     d="m 379.92823,300.46144 v 111.12309 c 0,10.3136 -8.2974,18.61099 -18.61098,18.61099 h -89.95311 c -5.11802,0 -9.30549,-4.18747 -9.30549,-9.30549 v -86.85127 c 0,-5.11802 -4.18748,-9.30549 -9.30549,-9.30549 H 196.9202 c -5.11803,0 -9.30549,4.18747 -9.30549,9.30549 v 86.85127 c 0,5.11802 -4.18748,9.30549 -9.3055,9.30549 H 88.356107 c -10.313588,0 -18.610986,-8.29739 -18.610986,-18.61099 V 300.46144 c 0,-2.79165 1.240732,-5.42821 3.412013,-7.21176 L 218.94319,173.20883 c 3.41202,-2.79165 8.37495,-2.79165 11.86451,0 l 145.78605,120.04085 c 2.09374,1.78355 3.33448,4.42011 3.33448,7.21176 z m 64.82826,-47.22537 -64.82826,-53.42904 V 92.40613 c 0,-5.118021 -4.18748,-9.305493 -9.30549,-9.305493 H 327.1971 c -5.11802,0 -9.30549,4.187472 -9.30549,9.305493 v 56.29823 L 248.48814,91.553127 c -13.72561,-11.321684 -33.57732,-11.321684 -47.30292,0 L 4.9168528,253.23607 c -3.9548345,3.25691 -4.4976549,9.1504 -1.2407323,13.10523 l 19.7741715,24.03919 c 3.256923,3.95483 9.150402,4.49765 13.105236,1.24074 L 218.94319,141.41506 c 3.41202,-2.79165 8.37495,-2.79165 11.86451,0 l 182.38767,150.20617 c 3.95483,3.25691 9.84831,2.71409 13.10523,-1.24074 l 19.77417,-24.03919 c 3.25693,-4.03238 2.63656,-9.84832 -1.31828,-13.10523 z"
     id="path2"
     inkscape:connector-curvature="0"
     style="stroke-width:0.7754578;fill:#ffffff;fill-opacity:1" />
</svg>
