<?xml version="1.0" encoding="UTF-8" standalone="no"?>
<svg
   xmlns:dc="http://purl.org/dc/elements/1.1/"
   xmlns:cc="http://creativecommons.org/ns#"
   xmlns:rdf="http://www.w3.org/1999/02/22-rdf-syntax-ns#"
   xmlns:svg="http://www.w3.org/2000/svg"
   xmlns="http://www.w3.org/2000/svg"
   xmlns:sodipodi="http://sodipodi.sourceforge.net/DTD/sodipodi-0.dtd"
   xmlns:inkscape="http://www.inkscape.org/namespaces/inkscape"
   viewBox="0 0 576 512"
   version="1.1"
   id="svg4"
   sodipodi:docname="map.svg"
   inkscape:version="0.92.3 (2405546, 2018-03-11)">
  <metadata
     id="metadata10">
    <rdf:RDF>
      <cc:Work
         rdf:about="">
        <dc:format>image/svg+xml</dc:format>
        <dc:type
           rdf:resource="http://purl.org/dc/dcmitype/StillImage" />
      </cc:Work>
    </rdf:RDF>
  </metadata>
  <defs
     id="defs8" />
  <sodipodi:namedview
     pagecolor="#ffffff"
     bordercolor="#666666"
     borderopacity="1"
     objecttolerance="10"
     gridtolerance="10"
     guidetolerance="10"
     inkscape:pageopacity="0"
     inkscape:pageshadow="2"
     inkscape:window-width="1280"
     inkscape:window-height="657"
     id="namedview6"
     showgrid="false"
     inkscape:zoom="0.4609375"
     inkscape:cx="288"
     inkscape:cy="256"
     inkscape:window-x="-8"
     inkscape:window-y="-8"
     inkscape:window-maximized="1"
     inkscape:current-layer="svg4" />
  <path
     d="M576 56.015v335.97a23.998 23.998 0 0 1-13.267 21.466l-128 64C418.948 485.344 400 473.992 400 455.985v-335.97a23.998 23.998 0 0 1 13.267-21.466l128-64C557.052 26.656 576 38.008 576 56.015zm-206.253 42.07l-144-64c-15.751-7-33.747 4.461-33.747 21.932v335.967a24 24 0 0 0 14.253 21.931l144 64c15.751 7 33.747-4.461 33.747-21.931V120.017a24 24 0 0 0-14.253-21.932zm-228.48-63.536l-128 63.985A23.998 23.998 0 0 0 0 120v335.985c0 18.007 18.948 29.359 34.733 21.466l128-63.985A23.998 23.998 0 0 0 176 392V56.015c0-18.007-18.948-29.359-34.733-21.466z"
     id="path2"
     style="fill:#ffffff;fill-opacity:1" />
</svg>
